<?xml version="1.0" encoding="UTF-8"?>
<svg id="Layer_1" data-name="Layer 1" xmlns="http://www.w3.org/2000/svg" viewBox="0 0 1257.78 206.05">
  <defs>
    <style>
      .cls-1 {
        fill: #fa5400;
      }
    </style>
  </defs>
  <path d="M543.92,32.18v148.76l-92.09-71.25v64.16h-42.5V25.1l92.09,71.25V32.18h42.5Z"/>
  <path d="M614.76,32.18v141.68h-42.5V32.18h42.5ZM603.02,32.18h71.45v35.42h-71.45v-35.42ZM603.02,83.8h67.4v34.41h-67.4v-34.41ZM603.02,138.44h71.45v35.42h-71.45v-35.42Z"/>
  <path d="M731.95,132.27c3.51,3.44,7.32,6.04,11.44,7.79,4.11,1.75,8.26,2.63,12.45,2.63,3.51,0,6.48-.71,8.91-2.12s3.64-3.67,3.64-6.78c0-1.89-.64-3.51-1.92-4.86-1.28-1.35-3.81-2.9-7.59-4.66-3.78-1.75-9.51-4.12-17.2-7.08-3.37-1.35-7.25-3.17-11.64-5.46-4.39-2.29-8.57-5.26-12.55-8.91-3.98-3.64-7.29-8.1-9.92-13.36s-3.95-11.47-3.95-18.62c0-9.31,2.5-17.13,7.49-23.48,4.99-6.34,11.6-11.13,19.83-14.37,8.23-3.24,17.27-4.86,27.12-4.86,10.66,0,19.8,1.62,27.43,4.86,7.62,3.24,13.9,7.29,18.82,12.14,4.92,4.86,8.67,9.72,11.23,14.57l-32.99,18.22c-2.16-3.37-4.55-6.04-7.18-7.99-2.63-1.96-5.3-3.41-8-4.35-2.7-.94-5.33-1.42-7.89-1.42-3.11,0-5.64.54-7.59,1.62-1.96,1.08-2.94,2.77-2.94,5.06,0,2.83,1.38,5.16,4.15,6.98,2.76,1.82,6.44,3.51,11.03,5.06,4.59,1.55,9.65,3.34,15.18,5.36,5.67,2.02,10.73,4.42,15.18,7.18,4.45,2.77,8.26,5.97,11.44,9.61,3.17,3.64,5.57,7.73,7.18,12.25,1.62,4.52,2.43,9.55,2.43,15.08,0,7.83-1.62,14.74-4.86,20.75-3.24,6.01-7.59,10.96-13.05,14.88-5.46,3.92-11.64,6.88-18.52,8.91-6.88,2.02-13.97,3.04-21.25,3.04-10.12,0-19.53-1.65-28.24-4.96s-16.23-7.86-22.57-13.66c-6.34-5.8-11.13-12.28-14.37-19.43l29.96-21.86c2.7,4.72,5.8,8.8,9.31,12.25Z"/>
  <path d="M879.3,32.18v141.68h-42.5V32.18h42.5ZM867.56,32.18h71.45v35.42h-71.45v-35.42ZM867.56,83.8h67.4v34.41h-67.4v-34.41ZM867.56,138.44h71.45v35.42h-71.45v-35.42Z"/>
  <path d="M1004.79,173.86h-47.56l26.31-148.76,62.75,76.51,62.74-76.51,26.31,148.76h-47.56l-7.29-57.89-34.21,44.73-34.21-44.73-7.29,57.89Z"/>
  <path d="M1198.07,32.18v141.68h-42.5V32.18h42.5ZM1186.34,32.18h71.45v35.42h-71.45v-35.42ZM1186.34,83.8h67.4v34.41h-67.4v-34.41ZM1186.34,138.44h71.45v35.42h-71.45v-35.42Z"/>
  <path class="cls-1" d="M0,137.36L80.13,0h194.6v68.68l-80.13,137.36H0v-68.68Z"/>
</svg>